{"title":"Party All Night Boss Song Video - Akshay Kumar, YO YO Honey Sing","uid":8909328,"size":129743981,"categoryP":"video","categoryS":"music_videos","magnet":"?xt=urn:btih:31a60ef94be288d69148a30fcb1d03e4e9f74b84&amp;dn=Party+All+Night+Boss+Song+Video+-+Akshay+Kumar%2C+YO+YO+Honey+Sing&amp;tr=udp%3A%2F%2Ftracker.openbittorrent.com%3A80&amp;tr=udp%3A%2F%2Fopen.demonii.com%3A1337&amp;tr=udp%3A%2F%2Ftracker.coppersurfer.tk%3A6969&amp;tr=udp%3A%2F%2Fexodus.desync.com%3A6969","seeders":2,"leechers":0,"uploader":"Palash995","files":1,"time":1378980362,"description":"Presenting The Party Anthem of 2013 &quot;Party All Night&quot; song from Akshay Kumar starrer movie BOSS. The song is composed and sung by YO YO Honey Singh, while lyrics are penned by Sahil Kaushal. \n\nâ™¥ LIKE It | SHARE It â™¥\n\nSong: Party All NIght\nSinger: Yo Yo Honey Singh\nMusic: Yo Yo Honey Singh\nLyrics: Sahil Kaushal \nMovie: Boss\n\nMedia Info:-\n\nGeneral \nComplete name : Party All Night Boss Song Video - Akshay Kumar, YO YO Honey Singh, Sonakshi Sinha 1080P By Palash.MP4 \nFormat : MPEG-4 \nFormat profile : Base Media / Version 2 \nCodec ID : mp42 \nFile size : 124 MiB \nDuration : 2mn 52s \nOverall bit rate mode : Variable \nOverall bit rate : 6 001 Kbps \nEncoded date : UTC 2013-09-05 14:42:12 \nTagged date : UTC 2013-09-05 14:42:12 \ngsst : 0 \ngstd : 173011 \ngssd : BB64FFB45HH1378527530756951 \n\nVideo \nID : 1 \nFormat : AVC \nFormat/Info : Advanced Video Codec \nFormat profile : &lt;a class=&quot;__cf_email__&quot; href=&quot;/cdn-cgi/l/email-protection&quot; data-cfemail=&quot;4e062729260e027a607e&quot;&gt;[email&amp;#160;protected]&lt;/a&gt;&lt;script cf-hash='f9e31' type=&quot;text/javascript&quot;&gt;\n/* &lt;![CDATA[ */!function(){try{var t=&quot;currentScript&quot;in document?document.currentScript:function(){for(var t=document.getElementsByTagName(&quot;script&quot;),e=t.length;e--;)if(t[e].getAttribute(&quot;cf-hash&quot;))return t[e]}();if(t&amp;&amp;t.previousSibling){var e,r,n,i,c=t.previousSibling,a=c.getAttribute(&quot;data-cfemail&quot;);if(a){for(e=&quot;&quot;,r=parseInt(a.substr(0,2),16),n=2;a.length-n;n+=2)i=parseInt(a.substr(n,2),16)^r,e+=String.fromCharCode(i);e=document.createTextNode(e),c.parentNode.replaceChild(e,c)}}}catch(u){}}();/* ]]&gt; */&lt;/script&gt; \nFormat settings, CABAC : Yes \nFormat settings, ReFrames : 1 frame \nCodec ID : avc1 \nCodec ID/Info : Advanced Video Coding \nDuration : 2mn 52s \nBit rate : 5 807 Kbps \nMaximum bit rate : 10.2 Mbps \nWidth : 1 920 pixels \nHeight : 1 080 pixels \nDisplay aspect ratio : 16:9 \nFrame rate mode : Constant \nFrame rate : 24.000 fps \nColor space : YUV \nChroma subsampling : 4:2:0 \nBit depth : 8 bits \nScan type : Progressive \nBits/(Pixel*Frame) : 0.117 \nStream size : 120 MiB (97%) \nTagged date : UTC 2013-09-05 14:42:26 \n\nAudio \nID : 2 \nFormat : AAC \nFormat/Info : Advanced Audio Codec \nFormat profile : LC \nCodec ID : 40 \nDuration : 2mn 52s \nBit rate mode : Variable \nBit rate : 192 Kbps \nMaximum bit rate : 201 Kbps \nChannel(s) : 2 channels \nChannel positions : Front: L R \nSampling rate : 44.1 KHz \nCompression mode : Lossy \nStream size : 3.96 MiB (3%) \nTitle : IsoMedia File Produced by Google, 5-11-2011 \nEncoded date : UTC 2013-09-05 14:42:22 \nTagged date : UTC 2013-09-05 14:42:26 \n\nScreenshots:-\n &lt;a href=&quot;\nhttp://www.djmaza.info/screenshots/promos/partyall1.jpg&quot; rel=&quot;nofollow&quot; target=&quot;_NEW&quot;&gt;\nhttp://www.djmaza.info/screenshots/promos/partyall1.jpg&lt;/a&gt;\n &lt;a href=&quot;\nhttp://www.djmaza.info/screenshots/promos/partyall2.jpg&quot; rel=&quot;nofollow&quot; target=&quot;_NEW&quot;&gt;\nhttp://www.djmaza.info/screenshots/promos/partyall2.jpg&lt;/a&gt;\n &lt;a href=&quot;\nhttp://www.djmaza.info/screenshots/promos/partyall3.jpg&quot; rel=&quot;nofollow&quot; target=&quot;_NEW&quot;&gt;\nhttp://www.djmaza.info/screenshots/promos/partyall3.jpg&lt;/a&gt;\n &lt;a href=&quot;\nhttp://www.djmaza.info/screenshots/promos/partyall4.jpg&quot; rel=&quot;nofollow&quot; target=&quot;_NEW&quot;&gt;\nhttp://www.djmaza.info/screenshots/promos/partyall4.jpg&lt;/a&gt;\n &lt;a href=&quot;\nhttps://yuq.me/users/26/528/I3ZGxcLa4m.gif]&quot; rel=&quot;nofollow&quot; target=&quot;_NEW&quot;&gt;\nhttps://yuq.me/users/26/528/I3ZGxcLa4m.gif]&lt;/a&gt;\n &lt;a href=&quot;\nhttps://yuq.me/users/26/528/peGatb2Nv7.gif&quot; rel=&quot;nofollow&quot; target=&quot;_NEW&quot;&gt;\nhttps://yuq.me/users/26/528/peGatb2Nv7.gif&lt;/a&gt;\n &lt;a href=&quot;\nhttps://yuq.me/users/26/528/yaCX9PIV5G.png&quot; rel=&quot;nofollow&quot; target=&quot;_NEW&quot;&gt;\nhttps://yuq.me/users/26/528/yaCX9PIV5G.png&lt;/a&gt;","torrent":{"xt":"urn:btih:31a60ef94be288d69148a30fcb1d03e4e9f74b84","amp;dn":"Party+All+Night+Boss+Song+Video+-+Akshay+Kumar%2C+YO+YO+Honey+Sing","amp;tr":["udp%3A%2F%2Ftracker.openbittorrent.com%3A80","udp%3A%2F%2Fopen.demonii.com%3A1337","udp%3A%2F%2Ftracker.coppersurfer.tk%3A6969","udp%3A%2F%2Fexodus.desync.com%3A6969"],"infoHash":"31a60ef94be288d69148a30fcb1d03e4e9f74b84","infoHashBuffer":{"type":"Buffer","data":[49,166,14,249,75,226,136,214,145,72,163,15,203,29,3,228,233,247,75,132]},"announce":[],"urlList":[]}}